<svg width="97" height="97" viewBox="0 0 97 97" fill="none" xmlns="http://www.w3.org/2000/svg">
<circle cx="48.5" cy="48.5" r="48.5" fill="#4E374B"/>
<path d="M51.1948 67.3583C51.0736 66.7159 50.8789 66.0895 50.6145 65.4916C48.7382 61.1007 48.1192 59.1857 48.1192 59.1857C48.1192 59.1857 48.0321 59.4565 47.7033 60.3559C47.3551 62.329 47.3745 66.9134 51.1948 67.3583Z" fill="#F4F0EA"/>
<path d="M66.805 33.3331C57.1333 35.4319 48.1192 51.3322 48.1192 51.3322C48.1192 51.3322 39.1632 35.4996 29.4818 33.3525C28.198 34.8993 27.034 36.5418 26 38.2657C29.4915 39.5327 43.9217 45.4228 48.1096 57.996C52.3361 45.3357 66.9211 39.4457 70.2868 38.2367C69.2476 36.5193 68.0839 34.8804 66.805 33.3331Z" fill="#F4F0EA"/>
<path d="M48.1095 50.4232C55.2956 36.1187 62.8009 32.4821 65.3155 31.631C63.7885 29.9728 62.0896 28.4814 60.2475 27.182C53.2742 31.0507 48.2256 42.6568 48.0902 43.0049C47.9548 42.6858 42.9255 31.1281 35.9812 27.211C34.1425 28.5109 32.4498 30.0059 30.9326 31.6697C33.5439 32.5401 41.0298 36.2347 48.1095 50.4232Z" fill="#F4F0EA"/>
<path d="M48.1192 41.3898C51.7848 33.1398 55.9726 27.9944 58.5453 26.0794C57.0264 25.1874 55.4018 24.4888 53.7095 24C49.6763 27.8687 48.1095 35.3062 48.1095 35.3062C48.1095 35.3062 46.5427 27.888 42.5193 24.0193C40.8256 24.5089 39.2008 25.2108 37.6834 26.1084C40.3141 28.0331 44.473 33.1688 48.1192 41.3898Z" fill="#F4F0EA"/>
<path d="M45.8657 65.2596C45.798 65.4241 45.7303 65.5691 45.6723 65.7336C43.6316 70.5114 46.359 73.2872 48.1676 73.1614C48.5556 73.1546 48.9376 73.0647 49.2879 72.8979C49.6382 72.731 49.9488 72.4911 50.1986 72.1943C45.682 71.6043 45.5659 67.4648 45.8657 65.2596Z" fill="#F4F0EA"/>
<path d="M46.8813 62.7159C46.6975 63.1512 46.5234 63.5961 46.2816 64.1764C45.8851 66.1107 45.5369 71.0046 50.4695 71.8557C50.8565 71.3951 51.1077 70.8358 51.1948 70.2405C46.1945 70.0665 46.5331 64.805 46.8813 62.7159Z" fill="#F4F0EA"/>
<path d="M47.5583 60.7913C47.4228 61.1781 47.2874 61.7584 47.1037 62.1356C46.8522 64.6696 46.2816 69.5442 51.2722 69.6022C51.3793 69.0333 51.3793 68.4495 51.2722 67.8806C47.5196 67.3584 46.9973 63.2866 47.5583 60.7913Z" fill="#F4F0EA"/>
</svg>
