<svg width="97" height="97" viewBox="0 0 97 97" fill="none" xmlns="http://www.w3.org/2000/svg">
<circle cx="48.5" cy="48.5" r="48" stroke="#4E374B"/>
<path d="M72.6052 45.8407L67.2976 44.5979L66.1936 41.1824L69.7618 37.0544C69.8343 36.9693 69.8764 36.8623 69.8811 36.7505C69.8859 36.6388 69.8531 36.5286 69.788 36.4376L67.0124 32.6104C66.9459 32.5181 66.8499 32.4512 66.7404 32.4207C66.6308 32.3901 66.5141 32.3978 66.4094 32.4423L61.3795 34.5626L58.4759 32.4516L58.9385 27.0114C58.9488 26.8986 58.9204 26.7856 58.8578 26.6912C58.7953 26.5967 58.7025 26.5264 58.5946 26.4918L54.0827 25.0253C53.9753 24.99 53.8591 24.9923 53.7532 25.0318C53.6472 25.0713 53.5579 25.1457 53.4999 25.2427L50.6765 29.915H47.0821L44.2587 25.2427C44.2006 25.1454 44.111 25.0708 44.0047 25.0313C43.8984 24.9917 43.7819 24.9896 43.6743 25.0253L39.1778 26.4902C39.0698 26.5248 38.9768 26.5951 38.914 26.6895C38.8512 26.7839 38.8224 26.8969 38.8324 27.0099L39.295 32.45L36.3899 34.561L31.3614 32.4423C31.257 32.3973 31.1403 32.3893 31.0307 32.4196C30.921 32.4498 30.825 32.5166 30.7585 32.6089L27.9829 36.4361C27.9172 36.5269 27.8842 36.6373 27.8893 36.7493C27.8943 36.8613 27.9371 36.9683 28.0107 37.0529L31.5788 41.1824L30.4748 44.5979L25.158 45.8407C25.0481 45.8665 24.9503 45.9287 24.8803 46.0171C24.8103 46.1056 24.7723 46.2152 24.7725 46.328V51.0588C24.772 51.1721 24.8101 51.2822 24.8804 51.371C24.9507 51.4598 25.0491 51.5221 25.1595 51.5477L30.4748 52.7905L31.5788 56.206L28.0107 60.3339C27.9376 60.4188 27.8951 60.5257 27.8901 60.6375C27.8851 60.7494 27.9177 60.8597 27.9829 60.9507L30.7585 64.7764C30.8244 64.869 30.92 64.9362 31.0295 64.9668C31.1389 64.9974 31.2555 64.9896 31.3599 64.9445L36.3899 62.8258L39.295 64.9368L38.8324 70.377C38.8225 70.4897 38.8514 70.6025 38.9141 70.6967C38.9769 70.7908 39.0699 70.8608 39.1778 70.8951L43.6758 72.3569C43.7832 72.3922 43.8994 72.3899 44.0054 72.3504C44.1113 72.3109 44.2006 72.2365 44.2587 72.1395L47.0821 67.4672H50.6749L53.4983 72.1395C53.5434 72.2127 53.6065 72.2732 53.6815 72.3153C53.7565 72.3574 53.841 72.3797 53.927 72.38C53.9793 72.3802 54.0313 72.3724 54.0812 72.3569L58.5807 70.8997C58.6883 70.8652 58.781 70.7951 58.8435 70.7009C58.9059 70.6068 58.9346 70.4942 58.9246 70.3816L58.462 64.9399L61.3671 62.8366L66.3956 64.9568C66.5002 65.0014 66.6169 65.0091 66.7265 64.9785C66.8361 64.948 66.932 64.8811 66.9985 64.7888L69.7741 60.9554C69.8392 60.8644 69.872 60.7542 69.8672 60.6425C69.8625 60.5307 69.8205 60.4237 69.7479 60.3386L66.1797 56.2106L67.2976 52.7905L72.6129 51.5477C72.7233 51.5221 72.8217 51.4598 72.892 51.371C72.9624 51.2822 73.0004 51.1721 72.9999 51.0588V46.328C73 46.2138 72.9607 46.1031 72.8889 46.0144C72.817 45.9257 72.7169 45.8644 72.6052 45.8407ZM71.9884 50.6687L66.7872 51.8853C66.7031 51.9049 66.6254 51.9458 66.5616 52.0042C66.4979 52.0625 66.4502 52.1363 66.4233 52.2184L65.1311 56.1968C65.1117 56.2752 65.1114 56.3572 65.1302 56.4358C65.1489 56.5144 65.1863 56.5874 65.2391 56.6486L68.7379 60.6963L66.4249 63.8805L61.5013 61.8019C61.4219 61.7693 61.3355 61.7574 61.2503 61.7674C61.165 61.7774 61.0837 61.8089 61.014 61.859L57.6509 64.3015C57.5816 64.3529 57.5264 64.421 57.4905 64.4994C57.4547 64.5779 57.4393 64.6642 57.4458 64.7502L57.8915 70.0701L54.1506 71.2852L51.3873 66.7132C51.3422 66.6395 51.2789 66.5786 51.2036 66.5363C51.1284 66.4939 51.0435 66.4715 50.9571 66.4711H46.7937C46.7077 66.4713 46.6232 66.4936 46.5484 66.536C46.4735 66.5785 46.4109 66.6395 46.3666 66.7132L43.6064 71.2852L39.8655 70.0717L40.3127 64.7471C40.3202 64.6612 40.3052 64.5748 40.2692 64.4965C40.2333 64.4181 40.1776 64.3504 40.1076 64.3L36.7152 61.8328C36.6469 61.7895 36.5692 61.7634 36.4887 61.7567C36.4081 61.75 36.3271 61.7629 36.2526 61.7942L31.3275 63.8682L29.0145 60.684L32.5349 56.6116C32.5843 56.5465 32.6172 56.4704 32.6309 56.3899C32.6446 56.3094 32.6386 56.2267 32.6135 56.149L31.3306 52.1999C31.3036 52.118 31.2559 52.0445 31.1921 51.9864C31.1284 51.9283 31.0507 51.8877 30.9667 51.8684L25.7624 50.6487V46.7258L30.9636 45.5092C31.0479 45.4899 31.1257 45.4491 31.1895 45.3907C31.2533 45.3323 31.3008 45.2584 31.3275 45.1761L32.612 41.224C32.6375 41.1423 32.6416 41.0554 32.6238 40.9716C32.6059 40.8879 32.5668 40.8102 32.5102 40.746L29.013 36.6998L31.3259 33.5155L36.2557 35.588C36.3352 35.6213 36.422 35.6336 36.5076 35.6236C36.5932 35.6136 36.6748 35.5817 36.7445 35.5309L40.1061 33.09C40.176 33.0394 40.2317 32.9717 40.2679 32.8934C40.3041 32.8151 40.3195 32.7288 40.3127 32.6428L39.8671 27.3167L43.608 26.1016L46.3681 30.6752C46.4128 30.7489 46.4757 30.8099 46.5508 30.8523C46.6259 30.8947 46.7106 30.9171 46.7968 30.9173H50.9602C51.0462 30.9171 51.1307 30.8947 51.2055 30.8523C51.2804 30.8099 51.343 30.7489 51.3873 30.6752L54.1537 26.1032L57.8915 27.3183L57.4458 32.6412C57.4392 32.7275 57.4545 32.814 57.4904 32.8928C57.5262 32.9715 57.5815 33.0399 57.6509 33.0915L61.014 35.5325C61.0839 35.5834 61.1658 35.6154 61.2517 35.6253C61.3376 35.6353 61.4246 35.623 61.5044 35.5895L66.428 33.5155L68.7409 36.6982L65.2468 40.7475C65.1892 40.8131 65.1495 40.8923 65.1314 40.9776C65.1133 41.063 65.1175 41.1515 65.1435 41.2348L66.4264 45.1838C66.4536 45.2658 66.5013 45.3394 66.565 45.3977C66.6287 45.456 66.7063 45.4971 66.7903 45.5169L71.9915 46.7335L71.9884 50.6687Z" fill="#4E374B"/>
<path d="M48.88 36.0506C45.9547 36.0518 43.1203 37.0673 40.8598 38.924C38.5993 40.7807 37.0525 43.3637 36.4829 46.233C35.9133 49.1023 36.3563 52.0803 37.7362 54.6597C39.1161 57.239 41.3477 59.2601 44.0507 60.3786C46.7537 61.4971 49.7609 61.6437 52.5599 60.7936C55.3589 59.9435 57.7766 58.1492 59.401 55.7163C61.0254 53.2835 61.756 50.3628 61.4684 47.4517C61.1808 44.5406 59.8927 41.8193 57.8236 39.7514C56.6516 38.5738 55.2577 37.6403 53.7225 37.0051C52.1873 36.3698 50.5414 36.0454 48.88 36.0506ZM57.1081 56.9231C55.204 58.8236 52.6999 60.0052 50.0224 60.2666C47.3448 60.528 44.6595 59.853 42.4237 58.3567C40.188 56.8603 38.5402 54.6352 37.761 52.0602C36.9819 49.4852 37.1195 46.7198 38.1505 44.2349C39.1815 41.7501 41.0421 39.6995 43.4154 38.4326C45.7887 37.1656 48.5278 36.7606 51.1661 37.2866C53.8044 37.8126 56.1788 39.237 57.8848 41.3172C59.5908 43.3974 60.5228 46.0047 60.522 48.695C60.5252 50.224 60.2251 51.7386 59.6391 53.1509C59.0531 54.5633 58.1928 55.8454 57.1081 56.9231Z" fill="#4E374B"/>
</svg>
