<svg width="97" height="97" viewBox="0 0 97 97" fill="none" xmlns="http://www.w3.org/2000/svg">
<circle cx="48.5" cy="48.5" r="48" stroke="#4E374B"/>
<g clip-path="url(#clip0_664_28)">
<path d="M42.8472 57.8846C42.9166 57.8488 42.9933 57.8302 43.0712 57.8302C43.149 57.8302 43.2258 57.8488 43.2951 57.8846C44.7127 58.5852 45.9187 59.3754 47.2329 59.7133C49.7629 60.4239 52.1207 59.7729 54.124 58.0535C54.1927 57.9652 54.2789 57.8924 54.3773 57.8399C54.4756 57.7875 54.5837 57.7565 54.6947 57.749C54.8057 57.7415 54.9169 57.7576 55.0213 57.7964C55.1257 57.8352 55.2208 57.8957 55.3005 57.974C58.6771 60.3394 60.4737 63.5545 60.5229 67.7288C60.5229 68.9413 60.4393 70.1637 60.5623 71.3663C60.6608 72.3303 60.1981 72.6782 59.4351 72.8074C57.2062 73.2673 54.9554 73.6123 52.6917 73.841C48.2321 74.1342 43.7578 74.0994 39.3672 73.0161C37.4968 72.549 37.4475 72.5192 37.5214 70.5662C37.5952 68.6133 37.5509 66.4964 37.9841 64.5534C38.3037 63.1667 38.8998 61.8603 39.7359 60.7137C40.572 59.5672 41.6306 58.6046 42.8472 57.8846ZM48.9163 72.9366C52.2438 72.8571 55.5712 72.7776 58.8248 71.893C59.317 71.7589 59.5434 71.57 59.5287 71.0184C59.4893 69.801 59.5533 68.5835 59.5287 67.371C59.4807 65.8093 59.0919 64.2776 58.3899 62.8852C57.688 61.4927 56.6902 60.2739 55.4678 59.3157C55.3936 59.2314 55.3033 59.1631 55.2024 59.1147C55.1014 59.0664 54.9918 59.0391 54.8802 59.0345C54.7686 59.0299 54.6572 59.048 54.5526 59.0877C54.4481 59.1275 54.3525 59.1882 54.2717 59.266C52.764 60.4021 50.933 61.0159 49.0517 61.0159C47.1703 61.0159 45.3394 60.4021 43.8317 59.266C43.7529 59.1864 43.6589 59.1238 43.5554 59.082C43.452 59.0402 43.3412 59.0201 43.2297 59.0229C43.1183 59.0257 43.0086 59.0513 42.9073 59.0983C42.806 59.1452 42.7152 59.2124 42.6405 59.2959C40.7553 60.8363 39.3377 62.7247 38.9193 65.1398C38.5993 66.9635 38.6682 68.8518 38.5206 70.7054C38.4664 71.416 38.6535 71.8135 39.4017 71.908C42.5152 72.6311 45.7019 72.983 48.8966 72.9565L48.9163 72.9366Z" fill="#4E374B"/>
<path d="M55.4678 56.6024C56.5781 54.9658 57.0561 52.9753 56.8116 51.007C58.5196 52.5475 60.3654 53.4121 62.5361 53.3575C64.6357 53.3096 66.6343 52.438 68.1081 50.9275C71.8145 53.2283 73.7933 56.5279 73.9705 60.9009C74.0295 62.2674 73.9705 63.6439 74 65.0105C74 65.577 73.8376 65.905 73.2912 66.0044C71.2091 66.3969 69.1368 66.8988 67.04 67.1324C65.3664 67.3212 63.6584 67.1722 61.8076 67.1722C61.6879 65.0212 61.0473 62.9328 59.9419 61.09C58.8366 59.2472 57.3003 57.7063 55.4678 56.6024ZM68.2213 52.2791C64.948 54.8284 61.4926 54.9725 57.9388 53.2432C57.5991 54.3166 57.2792 55.3104 56.9543 56.344C58.5692 57.4965 59.9218 58.9837 60.9217 60.7061C61.9217 62.4286 62.5459 64.3468 62.7527 66.3323C66.1983 66.2926 69.5995 66.1286 72.8334 65.1099C73.3109 60.0362 72.8088 55.4347 68.2213 52.2791Z" fill="#4E374B"/>
<path d="M36.2121 67.3759C32.3235 67.2964 28.5432 67.2467 24.8663 66.1038C24.256 65.915 23.9557 65.6516 24.0049 64.936C24.1674 62.68 24.0049 60.3692 24.443 58.1678C25.0534 54.9924 27.0567 52.6718 29.8575 50.9524C30.5873 51.7072 31.4581 52.3086 32.4195 52.7217C33.3809 53.1349 34.4139 53.3517 35.4587 53.3595C36.5036 53.3674 37.5396 53.1662 38.507 52.7675C39.4744 52.3689 40.354 51.7806 41.0949 51.0369C40.9281 52.9972 41.4395 54.9552 42.542 56.5776C38.6682 59.0772 36.5418 62.6352 36.2121 67.3759ZM29.8132 52.319C27.9526 53.3575 26.0476 55.5987 25.585 57.9989C25.1616 60.1705 25.1912 62.4315 25.0927 64.6577C25.0927 64.8515 25.4816 65.1895 25.7375 65.2441C27.2437 65.5621 28.75 65.8951 30.2758 66.064C31.9445 66.2479 33.6279 66.2579 35.2965 66.3423C35.4965 64.3554 36.1141 62.4345 37.108 60.7077C38.102 58.981 39.4495 57.4882 41.0604 56.3292C40.706 55.2359 40.3763 54.2272 40.0415 53.2134C36.4483 55.0024 33.0569 54.7788 29.7935 52.319H29.8132Z" fill="#4E374B"/>
<path d="M39.5789 38.4397L43.2065 35.1997C46.7456 38.385 50.9246 38.6782 54.7984 35.2345L58.4064 38.4298C55.6352 40.3777 54.3357 42.8624 54.5227 46.1372C50.8655 43.2798 47.2378 43.2599 43.5019 46.1372C43.5806 42.9071 42.3845 40.3926 39.5789 38.4397ZM56.7574 38.3552C56.4572 38.0074 56.216 37.6844 55.9354 37.3961C55.3201 36.77 54.7836 36.5613 53.8976 37.1874C52.2262 38.3364 50.2114 38.8633 48.1977 38.6782C46.3518 38.5185 44.5991 37.7899 43.177 36.5911L41.2081 38.2856C43.3394 40.5765 43.3394 40.5765 44.5306 44.1196C45.907 43.3449 47.4576 42.9408 49.0334 42.946C50.6092 42.9512 52.1572 43.3656 53.5285 44.1494C53.8629 41.883 55.0123 39.8204 56.7574 38.3552Z" fill="#4E374B"/>
<path d="M35.5475 52.0903C34.6676 52.0936 33.7957 51.9208 32.9823 51.5819C32.1688 51.243 31.43 50.7448 30.8085 50.1159C30.1869 49.487 29.695 48.74 29.3611 47.9181C29.0272 47.0961 28.858 46.2155 28.8632 45.3271C28.8716 43.5439 29.5814 41.8372 30.8364 40.5824C32.0913 39.3275 33.7887 38.6274 35.5549 38.6359C37.3212 38.6445 39.0118 39.3611 40.2547 40.628C41.4977 41.895 42.1912 43.6085 42.1827 45.3917C42.1853 46.2721 42.0155 47.1444 41.6829 47.9583C41.3504 48.7722 40.8618 49.5117 40.2451 50.1342C39.6285 50.7568 38.896 51.2501 38.0898 51.5858C37.2836 51.9215 36.4196 52.093 35.5475 52.0903ZM29.9313 45.2874C29.9118 46.411 30.2237 47.5151 30.8274 48.4592C31.4311 49.4033 32.2994 50.1449 33.3217 50.5895C34.344 51.0341 35.4742 51.1617 36.5685 50.9561C37.6629 50.7505 38.6719 50.2209 39.4673 49.4347C40.2627 48.6485 40.8085 47.6413 41.0354 46.5411C41.2622 45.4409 41.1598 44.2975 40.7411 43.2562C40.3225 42.2149 39.6066 41.3229 38.6844 40.6935C37.7622 40.0641 36.6754 39.7259 35.5623 39.7217C34.8302 39.7126 34.1036 39.8494 33.424 40.1243C32.7444 40.3993 32.1252 40.807 31.6021 41.3241C31.0789 41.8412 30.662 42.4575 30.3753 43.1376C30.0886 43.8177 29.9377 44.5482 29.9313 45.2874Z" fill="#4E374B"/>
<path d="M49.0591 45.3073C50.8206 45.3165 52.5064 46.0314 53.746 47.295C54.9856 48.5585 55.6775 50.2673 55.6696 52.0456C55.6615 52.9283 55.4813 53.8006 55.1393 54.6129C54.7973 55.4252 54.3001 56.1616 53.6762 56.7799C53.0523 57.3982 52.3139 57.8864 51.5031 58.2167C50.6923 58.5469 49.825 58.7127 48.9508 58.7045C48.0765 58.6964 47.2124 58.5144 46.4078 58.1691C45.6032 57.8238 44.8738 57.3219 44.2614 56.6921C43.6489 56.0622 43.1653 55.3167 42.8382 54.4981C42.5111 53.6796 42.3469 52.804 42.355 51.9214C42.3601 51.0413 42.5381 50.1709 42.8787 49.3606C43.2193 48.5504 43.7157 47.8165 44.3393 47.2013C44.9628 46.5861 45.701 46.102 46.5112 45.7769C47.3214 45.4517 48.1874 45.2921 49.0591 45.3073ZM54.6064 52.0357C54.6093 50.9139 54.2829 49.8165 53.6683 48.8819C53.0537 47.9474 52.1785 47.2177 51.1534 46.785C50.1282 46.3524 48.9991 46.2361 47.9085 46.451C46.8179 46.6659 45.8149 47.2022 45.0261 47.9923C44.2374 48.7824 43.6982 49.7907 43.4768 50.89C43.2554 51.9893 43.3616 53.1301 43.7821 54.1685C44.2026 55.2068 44.9185 56.096 45.8393 56.7238C46.7601 57.3516 47.8446 57.6898 48.9557 57.6957C50.4479 57.6997 51.8808 57.1061 52.9401 56.045C53.9993 54.984 54.5986 53.5422 54.6064 52.0357Z" fill="#4E374B"/>
<path d="M69.0581 45.3818C69.1024 48.9249 66.213 52.0406 62.8364 52.0854C58.8395 52.1351 55.8419 49.3075 55.7878 45.4315C55.7845 44.5505 55.9532 43.6775 56.2842 42.8623C56.6151 42.0471 57.1019 41.3058 57.7166 40.6805C58.3314 40.0553 59.0621 39.5584 59.8671 39.2182C60.6721 38.8781 61.5355 38.7013 62.4081 38.698C63.2808 38.6948 64.1455 38.8651 64.953 39.1992C65.7604 39.5333 66.4948 40.0247 67.1141 40.6454C67.7334 41.266 68.2256 42.0037 68.5625 42.8164C68.8995 43.6291 69.0745 44.5008 69.0778 45.3818H69.0581ZM56.8116 45.3818C56.8047 46.51 57.13 47.6148 57.7461 48.5561C58.3622 49.4974 59.2414 50.2327 60.2721 50.6688C61.3028 51.1049 62.4385 51.222 63.5353 51.0054C64.632 50.7888 65.6403 50.2482 66.4323 49.4522C67.2242 48.6562 67.7641 47.6406 67.9835 46.5343C68.2028 45.428 68.0918 44.2809 67.6643 43.2384C67.2369 42.196 66.5124 41.3052 65.5827 40.6791C64.6531 40.053 63.5601 39.7198 62.4426 39.7217C60.9519 39.7308 59.5249 40.3327 58.4709 41.3969C57.4168 42.461 56.8206 43.9017 56.8116 45.4066V45.3818Z" fill="#4E374B"/>
<path d="M49.187 36.3575C48.2693 36.3937 47.3542 36.2356 46.5005 35.8936C45.6468 35.5515 44.8734 35.033 44.23 34.3713C43.5866 33.7096 43.0875 32.9193 42.7645 32.0513C42.4416 31.1832 42.3021 30.2566 42.355 29.3309C42.4678 27.6084 43.2273 25.9942 44.4786 24.8178C45.7299 23.6413 47.3787 22.9911 49.0886 23C52.9033 23.0994 55.645 25.8921 55.645 29.8029C55.6482 30.6617 55.4837 31.5126 55.1607 32.3071C54.8377 33.1015 54.3627 33.8238 53.7628 34.4327C53.163 35.0415 52.45 35.5249 51.6648 35.8552C50.8797 36.1855 50.0377 36.3562 49.187 36.3575ZM54.6015 29.7036C54.9067 26.6971 51.7811 23.8348 48.6948 24.0286C47.2391 24.13 45.8769 24.7898 44.8875 25.8727C43.8982 26.9556 43.3566 28.3796 43.3739 29.8526C43.5019 32.8342 46.2042 35.617 48.8573 35.463C52.2437 35.2592 54.7492 32.7547 54.6163 29.7036H54.6015Z" fill="#4E374B"/>
</g>
<defs>
<clipPath id="clip0_664_28">
<rect width="50" height="51" fill="white" transform="translate(24 23)"/>
</clipPath>
</defs>
</svg>
