<svg width="97" height="97" viewBox="0 0 97 97" fill="none" xmlns="http://www.w3.org/2000/svg">
<circle cx="48.5" cy="48.5" r="48.5" fill="#4E374B"/>
<path d="M25.9711 53.0904C25.9093 52.9134 25.7843 52.7656 25.6201 52.6758C25.4663 52.6131 25.2788 52.5938 25 52.9409V53.3893C25.2788 53.7556 25.5288 53.7171 25.7115 53.6448C25.7659 53.6271 25.8162 53.5983 25.8592 53.5604C25.9021 53.5224 25.9368 53.476 25.9612 53.424C25.9855 53.3721 25.9989 53.3156 26.0006 53.2582C26.0023 53.2008 25.9923 53.1437 25.9711 53.0904Z" fill="#F4F0EA"/>
<path d="M25 48.1829V48.5493V48.5782C25.0152 48.6011 25.0329 48.6221 25.0529 48.6409L25.2307 48.6891C25.389 48.76 25.5634 48.7866 25.7355 48.7663C25.8023 48.7125 25.8569 48.6452 25.8959 48.5688C25.9348 48.4923 25.9572 48.4085 25.9614 48.3227C25.9428 48.2224 25.9026 48.1273 25.8437 48.044C25.7848 47.9608 25.7085 47.8914 25.6201 47.8407C25.3798 47.7394 25.1634 47.8503 25 48.1829Z" fill="#F4F0EA"/>
<path d="M65.8565 48.9734H61.3762V47.426C61.3762 46.1726 61.3762 44.9433 61.3762 43.7189C61.3555 43.5333 61.398 43.3462 61.4965 43.1879C61.5951 43.0295 61.7441 42.9092 61.9194 42.8463C65.52 41.0771 67.4477 38.1413 67.6544 34.116C67.8467 30.3992 66.3661 27.4151 63.2606 25.2555C62.9674 25.0482 62.7366 24.9132 62.453 25.0675C62.1694 25.2217 62.1549 25.4628 62.1597 25.8532V27.8104C62.1597 29.1795 62.1597 30.5486 62.1597 31.9129C62.1762 32.1817 62.1145 32.4496 61.9823 32.684C61.85 32.9184 61.6529 33.1094 61.4146 33.2338C60.4916 33.7689 59.4917 34.3666 58.3813 35.0464C58.1521 35.2043 57.8806 35.2889 57.6025 35.2889C57.3244 35.2889 57.0529 35.2043 56.8237 35.0464C55.8623 34.4582 54.9009 33.8653 53.9394 33.3398C53.6301 33.1968 53.372 32.962 53.2001 32.6671C53.0281 32.3723 52.9506 32.0316 52.978 31.6911C52.978 30.3317 52.978 28.953 52.978 27.6176V25.6893C52.978 25.2073 52.8386 25.1253 52.704 25.0867C52.4909 25.0303 52.2644 25.0561 52.0694 25.159C48.8005 27.3091 47.2622 30.3654 47.4929 34.2317C47.7333 38.1895 49.6562 41.0819 53.2135 42.8367C53.3942 42.9024 53.5477 43.0268 53.6497 43.1902C53.7516 43.3536 53.7961 43.5465 53.776 43.7381C53.776 46.6306 53.776 49.523 53.776 52.4154V55.5682H50.0985L50.3869 54.7969C51.1063 52.9147 51.3024 50.8719 50.9541 48.8867C49.9927 43.1018 44.6038 37.799 37.3161 38.9415C35.7667 39.1878 34.2824 39.7435 32.9511 40.5757C32.5954 40.7927 32.5954 40.9662 32.6387 41.0916C32.6919 41.2904 32.817 41.4622 32.9896 41.5736C33.2129 41.5927 33.4361 41.5367 33.6241 41.4145C35.7228 40.1327 38.2002 39.6215 40.6331 39.9683C44.7673 40.5565 47.6516 42.8318 49.2091 46.7173C50.7667 50.6029 50.2427 54.3389 47.5699 57.6026C46.6444 58.6499 46.1122 59.9882 46.0652 61.3868C46.0405 62.2835 45.7221 63.1471 45.159 63.8442C44.596 64.5413 43.8197 65.033 42.9501 65.2434C42.2758 65.3812 41.5903 65.4571 40.9023 65.47C40.5898 65.47 40.2725 65.4989 39.9408 65.523H39.7437V54.7053H41.1522C41.6714 54.7053 42.1906 54.7053 42.7098 54.7053C42.8442 54.7119 42.9757 54.6649 43.0757 54.5746C43.1756 54.4842 43.2359 54.3579 43.2434 54.2232C43.2413 54.0843 43.1873 53.9512 43.092 53.8504C42.9968 53.7495 42.8672 53.6881 42.729 53.6785H35.8643C35.7597 53.6757 35.6554 53.692 35.5566 53.7267C35.3403 53.8038 35.1432 53.9774 35.2298 54.2088C35.3261 54.4228 35.497 54.5942 35.7105 54.6908C35.8756 54.7404 36.0498 54.752 36.22 54.7246C36.3066 54.7246 36.3931 54.7246 36.4796 54.7246H38.6909V65.4652H36.8257C36.2371 65.4882 35.6499 65.3905 35.1002 65.1779C34.5505 64.9654 34.0499 64.6425 33.629 64.229C33.2082 63.8156 32.876 63.3203 32.6528 62.7735C32.4296 62.2268 32.3201 61.6401 32.331 61.0494C32.3037 59.8765 31.8507 58.7538 31.0571 57.8918C28.6006 55.0476 27.8218 51.6634 28.74 47.8261C29.0966 46.4328 29.7529 45.1345 30.6629 44.0226C30.7423 43.9405 30.7992 43.8392 30.8278 43.7285C30.8565 43.6178 30.856 43.5015 30.8263 43.391C30.7918 43.3056 30.7354 43.2307 30.6628 43.174C30.5902 43.1173 30.504 43.0808 30.4129 43.0681H30.3072C30.1245 43.0681 29.9947 43.1838 29.8264 43.42C28.158 45.5921 27.2847 48.2732 27.353 51.0142C27.4212 53.7551 28.4269 56.3892 30.2014 58.4751C30.8939 59.23 31.2812 60.2165 31.2878 61.2422C31.2905 62.0563 31.4848 62.8582 31.8549 63.5828C32.2249 64.3074 32.7603 64.9342 33.4174 65.4121C33.7218 65.6378 34.0432 65.8393 34.3789 66.0147L34.8836 66.2992L35.023 66.3859L34.9509 66.5354C34.7298 66.9455 34.6411 67.4143 34.6971 67.8772C34.753 68.34 34.9509 68.774 35.2634 69.1193L35.3547 69.2302L35.2634 69.341C34.9597 69.6707 34.7671 70.0879 34.7127 70.5334C34.6584 70.9789 34.7451 71.4303 34.9605 71.8237C35.3644 72.6336 36.0518 73.0096 37.119 73.0096C44.3939 73.0096 51.6656 73.0096 58.9341 73.0096H65.8613C66.6256 73.0096 66.7314 72.9035 66.7314 72.1322C66.7314 64.7115 66.7314 57.2924 66.7314 49.8749C66.7314 49.0988 66.6304 48.9734 65.8565 48.9734ZM41.5032 71.9105H36.9267C36.582 71.9191 36.2476 71.7929 35.9941 71.5586C35.8984 71.4608 35.8236 71.3446 35.774 71.217C35.7244 71.0894 35.7012 70.953 35.7057 70.8162C35.7106 70.662 35.7474 70.5105 35.8138 70.3713C35.8802 70.2322 35.9747 70.1084 36.0913 70.0077C36.2079 69.9071 36.3441 69.8319 36.4912 69.7868C36.6383 69.7418 36.7932 69.7279 36.9459 69.746H41.4743C41.6403 69.7362 41.8066 69.7597 41.9635 69.8151C42.1203 69.8706 42.2645 69.9569 42.3877 70.069C42.4831 70.1724 42.557 70.2939 42.6049 70.4263C42.6528 70.5588 42.6737 70.6996 42.6665 70.8403C42.6718 70.9906 42.6445 71.1404 42.5865 71.2791C42.5286 71.4179 42.4413 71.5425 42.3307 71.6442C42.2202 71.7459 42.0889 71.8224 41.9461 71.8683C41.8032 71.9143 41.6521 71.9287 41.5032 71.9105ZM41.5032 68.6854H36.9171C36.6994 68.6986 36.4827 68.6469 36.2942 68.5369C36.1057 68.4269 35.9539 68.2635 35.8578 68.0672C35.7617 67.8709 35.7257 67.6504 35.7542 67.4336C35.7827 67.2168 35.8746 67.0133 36.0181 66.8487C36.1411 66.7364 36.2853 66.65 36.4422 66.5945C36.5991 66.539 36.7655 66.5156 36.9315 66.5257H41.5176C41.667 66.5078 41.8185 66.523 41.9614 66.5702C42.1043 66.6175 42.2351 66.6955 42.3447 66.7989C42.4542 66.9024 42.5398 67.0286 42.5954 67.1688C42.651 67.309 42.6753 67.4598 42.6665 67.6104C42.6725 67.7612 42.6457 67.9114 42.5881 68.0508C42.5304 68.1902 42.4433 68.3153 42.3326 68.4175C42.222 68.5198 42.0905 68.5967 41.9473 68.643C41.804 68.6892 41.6525 68.7037 41.5032 68.6854ZM48.714 35.5622C48.3976 34.1112 48.4426 32.6044 48.845 31.175C49.2475 29.7456 49.995 28.4377 51.0214 27.3669C51.1272 27.2609 51.2426 27.1548 51.382 27.0295L51.6368 26.8029L51.9396 26.5233V26.9331C51.9396 27.4151 51.9396 27.931 51.9396 28.4179C51.9396 29.5073 51.9396 30.5342 51.9396 31.5754C51.8816 32.1329 51.9981 32.6946 52.2729 33.1827C52.5477 33.6708 52.9672 34.061 53.4731 34.2991C54.223 34.6993 54.9537 35.1476 55.6604 35.5863L56.2853 35.9671C56.6715 36.2287 57.1269 36.3684 57.5929 36.3684C58.0589 36.3684 58.5143 36.2287 58.9005 35.9671C59.91 35.3597 60.9243 34.7523 61.9434 34.1545C62.3423 33.9425 62.6726 33.6208 62.8957 33.2272C63.1188 32.8336 63.2253 32.3843 63.2029 31.9322C63.2029 30.8089 63.2029 29.6857 63.2029 28.5191V26.5426L63.6836 26.9524L63.948 27.1789C65.0178 28.2247 65.8085 29.523 66.2478 30.9549C66.6871 32.3867 66.7608 33.9063 66.4622 35.3742C66.1998 36.8526 65.5704 38.241 64.6319 39.4113C63.6935 40.5815 62.4762 41.496 61.0925 42.0702C60.3186 42.3835 60.3186 42.3835 60.3186 43.2175V48.9734H58.04C57.4679 48.9734 57.3141 49.1325 57.3093 49.711V55.5682H54.8576V43.097C54.8576 42.398 54.8576 42.3691 54.1894 42.1328C52.8107 41.5728 51.5914 40.68 50.6395 39.5337C49.6877 38.3875 49.0329 37.0232 48.7332 35.5622H48.714ZM48.9207 71.9008H43.5558L43.6183 71.6743C43.7537 71.2817 43.7836 70.8603 43.7051 70.4524C43.6267 70.0446 43.4425 69.6646 43.1713 69.3507L43.0751 69.2205L43.1665 69.1048C43.4743 68.7543 43.6698 68.319 43.7272 67.8555C43.7847 67.3919 43.7015 66.9218 43.4885 66.5064L43.4164 66.3618L43.5558 66.275L44.0366 65.981C44.3938 65.7948 44.7405 65.5888 45.0749 65.3639C45.8036 64.8065 46.3778 64.0713 46.743 63.2283C46.8032 63.1216 46.8869 63.0301 46.9877 62.9608C47.0885 62.8914 47.2038 62.8461 47.3247 62.8282C47.661 62.8112 47.9979 62.8112 48.3342 62.8282H48.9399L48.9207 71.9008ZM48.9207 61.7195H47.1901V61.5459C47.1335 60.8906 47.2374 60.2313 47.493 59.6255C47.7485 59.0197 48.1479 58.4858 48.6563 58.0702L48.9495 57.8195L48.9207 61.7195ZM65.669 71.9057H58.362V70.821C58.362 70.122 58.362 69.4278 58.362 68.7336C58.3683 68.6426 58.3528 68.5513 58.3169 68.4675C58.2809 68.3836 58.2255 68.3096 58.1553 68.2515C58.0853 68.2049 58.0053 68.1754 57.9218 68.1654C57.8383 68.1553 57.7537 68.165 57.6746 68.1937C57.4198 68.266 57.3141 68.4396 57.3141 68.7866V71.9057H50.06V56.6866H57.3093V64.6746C57.2969 64.7835 57.2969 64.8935 57.3093 65.0024C57.3316 65.1254 57.4008 65.2349 57.5021 65.3078C57.6035 65.3806 57.7291 65.4111 57.8525 65.3929C57.9144 65.3975 57.9765 65.3893 58.0351 65.3685C58.0936 65.3478 58.1472 65.3151 58.1924 65.2725C58.2376 65.2298 58.2735 65.1782 58.2977 65.1209C58.322 65.0637 58.334 65.0019 58.3332 64.9397C58.3332 64.8336 58.3332 64.7228 58.3332 64.6119V50.0774H65.669V71.9057Z" fill="#F4F0EA"/>
<path d="M72.8029 42.4077C72.0434 41.6653 71.2502 40.9084 70.4474 40.1612C70.398 40.0962 70.3344 40.0436 70.2615 40.0074C70.1885 39.9711 70.1082 39.9523 70.0268 39.9523C69.9453 39.9523 69.865 39.9711 69.7921 40.0074C69.7191 40.0436 69.6555 40.0962 69.6061 40.1612C68.837 40.8795 68.0774 41.6074 67.3179 42.345C66.9381 42.7114 67.0679 42.9572 67.2217 43.1308C67.2635 43.1854 67.3164 43.2305 67.3769 43.2629C67.4374 43.2953 67.5042 43.3144 67.5727 43.3188C67.6628 43.3173 67.7518 43.2977 67.8344 43.2613C67.9169 43.2249 67.9914 43.1723 68.0534 43.1067C68.2938 42.8849 68.5341 42.6583 68.7937 42.4028L69.5148 41.7424V56.8795C69.4998 57.0028 69.4998 57.1274 69.5148 57.2507C69.5281 57.377 69.5907 57.4929 69.6888 57.5733C69.7869 57.6536 69.9127 57.6919 70.0388 57.6797C70.1039 57.683 70.169 57.6729 70.2301 57.6502C70.2912 57.6274 70.3471 57.5924 70.3943 57.5473C70.4416 57.5022 70.4791 57.448 70.5048 57.3879C70.5304 57.3278 70.5436 57.263 70.5435 57.1977C70.5508 57.0853 70.5508 56.9726 70.5435 56.8602V41.7424L71.2646 42.4221C71.5482 42.6921 71.803 42.9379 72.0674 43.1693C72.1124 43.2265 72.1697 43.2727 72.2351 43.3045C72.3005 43.3363 72.3721 43.3528 72.4448 43.3528C72.5174 43.3528 72.5891 43.3363 72.6545 43.3045C72.7198 43.2727 72.7772 43.2265 72.8221 43.1693C72.8789 43.1228 72.9244 43.0639 72.955 42.9971C72.9855 42.9302 73.0005 42.8573 72.9986 42.7838C72.9968 42.7103 72.9782 42.6382 72.9442 42.573C72.9103 42.5078 72.862 42.4512 72.8029 42.4077Z" fill="#F4F0EA"/>
<path d="M70.3945 72.1129C70.3471 72.0655 70.2909 72.0279 70.2291 72.0023C70.1672 71.9766 70.1009 71.9634 70.034 71.9635C69.8993 71.9704 69.7719 72.0268 69.6761 72.1219C69.5803 72.2171 69.5229 72.3444 69.5148 72.4793C69.5109 72.612 69.559 72.7409 69.6489 72.8382C69.7389 72.9356 69.8633 72.9937 69.9955 73C70.0669 73.0054 70.1386 72.9962 70.2064 72.973C70.2742 72.9498 70.3365 72.9131 70.3897 72.865C70.439 72.818 70.4777 72.761 70.5034 72.6978C70.5291 72.6347 70.5411 72.5668 70.5387 72.4986C70.5428 72.3561 70.491 72.2176 70.3945 72.1129Z" fill="#F4F0EA"/>
<path d="M70.0388 68.1648C69.9074 68.1674 69.7814 68.2177 69.6842 68.3064C69.587 68.395 69.5251 68.516 69.51 68.6469C69.5045 68.7835 69.5528 68.9169 69.6446 69.0181C69.6955 69.0694 69.7562 69.11 69.8231 69.1373C69.89 69.1646 69.9617 69.1782 70.034 69.1771C70.104 69.1823 70.1742 69.172 70.2398 69.147C70.3054 69.1221 70.3648 69.083 70.4137 69.0325C70.4632 68.983 70.5013 68.9233 70.5253 68.8575C70.5494 68.7918 70.5589 68.7215 70.5531 68.6517C70.5458 68.52 70.4883 68.3961 70.3927 68.3055C70.297 68.2149 70.1703 68.1646 70.0388 68.1648Z" fill="#F4F0EA"/>
<path d="M33.9414 38.1221C33.9868 38.1711 34.0418 38.2102 34.1031 38.2367C34.1643 38.2633 34.2304 38.2768 34.2971 38.2763C34.3656 38.28 34.4341 38.2689 34.498 38.2438C34.5619 38.2188 34.6196 38.1803 34.6675 38.131C34.7153 38.0817 34.752 38.0226 34.7752 37.9579C34.7984 37.8932 34.8075 37.8242 34.8019 37.7557C34.8079 37.6888 34.8 37.6214 34.7785 37.5578C34.7571 37.4943 34.7226 37.4359 34.6774 37.3864C34.6321 37.3369 34.5771 37.2975 34.5157 37.2706C34.4544 37.2437 34.3881 37.2299 34.3212 37.2302C34.2561 37.2269 34.191 37.237 34.1298 37.2598C34.0687 37.2825 34.0128 37.3175 33.9656 37.3626C33.9184 37.4077 33.8808 37.4619 33.8552 37.5221C33.8295 37.5822 33.8163 37.6469 33.8164 37.7123C33.8077 37.7856 33.8143 37.8598 33.8358 37.9304C33.8573 38.001 33.8933 38.0662 33.9414 38.1221Z" fill="#F4F0EA"/>
<path d="M43.7433 37.746C43.7416 37.8203 43.7552 37.8943 43.7834 37.9631C43.8115 38.032 43.8535 38.0943 43.9068 38.1461C43.9548 38.1914 44.0115 38.2263 44.0735 38.2487C44.1356 38.2711 44.2015 38.2805 44.2673 38.2762C44.4029 38.2675 44.5297 38.2054 44.6197 38.1033C44.7098 38.0012 44.7559 37.8676 44.748 37.7315C44.748 37.6036 44.6974 37.481 44.6072 37.3906C44.5171 37.3002 44.3948 37.2494 44.2673 37.2494C44.1994 37.2432 44.131 37.2516 44.0665 37.274C44.0021 37.2963 43.9432 37.3322 43.8936 37.3791C43.844 37.4261 43.805 37.4831 43.7791 37.5463C43.7532 37.6096 43.741 37.6776 43.7433 37.746Z" fill="#F4F0EA"/>
<path d="M39.2293 37.3748C39.3568 37.3748 39.4791 37.324 39.5693 37.2336C39.6594 37.1432 39.7101 37.0206 39.7101 36.8927C39.7168 36.8255 39.7094 36.7576 39.6882 36.6934C39.6671 36.6293 39.6328 36.5703 39.5875 36.5203C39.5421 36.4702 39.4868 36.4304 39.4251 36.4032C39.3634 36.376 39.2967 36.3621 39.2293 36.3625C39.1645 36.3608 39.0999 36.3723 39.0396 36.3964C38.9793 36.4204 38.9245 36.4564 38.8784 36.5023C38.8272 36.5542 38.7872 36.616 38.7608 36.684C38.7343 36.7519 38.722 36.8246 38.7246 36.8976C38.7251 36.9625 38.7388 37.0267 38.7647 37.0863C38.7907 37.1458 38.8284 37.1995 38.8755 37.2441C38.9227 37.2887 38.9783 37.3232 39.0391 37.3457C39.0999 37.3682 39.1646 37.3781 39.2293 37.3748Z" fill="#F4F0EA"/>
<path d="M70.0436 64.3998C69.9025 64.401 69.7677 64.4582 69.6686 64.5589C69.6201 64.6067 69.5815 64.6637 69.5551 64.7266C69.5287 64.7895 69.515 64.857 69.5148 64.9252C69.523 65.0263 69.5592 65.1231 69.6193 65.2047C69.6794 65.2862 69.761 65.3493 69.8549 65.3869C69.9488 65.4245 70.0514 65.435 70.1509 65.4173C70.2505 65.3997 70.3432 65.3544 70.4185 65.2868C70.513 65.1831 70.5631 65.0463 70.5579 64.906C70.5615 64.8377 70.5506 64.7695 70.5259 64.7058C70.5012 64.6421 70.4632 64.5844 70.4146 64.5366C70.3659 64.4887 70.3077 64.4517 70.2437 64.4282C70.1798 64.4046 70.1115 64.3949 70.0436 64.3998Z" fill="#F4F0EA"/>
<path d="M69.9955 61.628C70.0667 61.6372 70.1391 61.6303 70.2073 61.6077C70.2755 61.5852 70.3378 61.5476 70.3897 61.4978C70.4384 61.4501 70.4772 61.3932 70.5036 61.3302C70.53 61.2673 70.5436 61.1997 70.5435 61.1314C70.5495 61.0646 70.5416 60.9972 70.5201 60.9336C70.4987 60.87 70.4642 60.8116 70.419 60.7621C70.3737 60.7127 70.3187 60.6732 70.2573 60.6463C70.196 60.6194 70.1297 60.6057 70.0628 60.606H70.0339C69.9005 60.6053 69.7717 60.6552 69.6734 60.7458C69.6213 60.7905 69.5793 60.8459 69.5502 60.9083C69.5212 60.9706 69.5058 61.0385 69.5052 61.1073C69.5038 61.2409 69.5541 61.3698 69.6455 61.4669C69.737 61.564 69.8624 61.6217 69.9955 61.628Z" fill="#F4F0EA"/>
<path d="M29.9274 40.4842C29.9734 40.5313 30.029 40.5678 30.0904 40.5911C30.1519 40.6144 30.2176 40.624 30.2831 40.6192C30.3492 40.6194 30.4146 40.6059 30.4752 40.5796C30.5359 40.5533 30.5904 40.5147 30.6355 40.4663C30.6806 40.4179 30.7153 40.3607 30.7374 40.2983C30.7595 40.2358 30.7685 40.1695 30.7639 40.1034C30.7692 40.0369 30.7607 39.9701 30.7389 39.9071C30.7172 39.844 30.6826 39.7862 30.6374 39.7373C30.5922 39.6884 30.5374 39.6494 30.4764 39.6228C30.4155 39.5962 30.3496 39.5826 30.2831 39.5828C30.1556 39.5828 30.0334 39.6336 29.9432 39.724C29.8531 39.8144 29.8024 39.937 29.8024 40.0648C29.7932 40.1396 29.7995 40.2155 29.8211 40.2877C29.8426 40.3599 29.8788 40.4268 29.9274 40.4842Z" fill="#F4F0EA"/>
<path d="M26.8268 44.1864C26.8747 44.2318 26.9315 44.2667 26.9935 44.2891C27.0556 44.3115 27.1215 44.3209 27.1873 44.3166C27.2547 44.3169 27.3214 44.3031 27.3831 44.2759C27.4448 44.2487 27.5001 44.2088 27.5454 44.1588C27.5907 44.1088 27.6251 44.0498 27.6462 43.9856C27.6673 43.9215 27.6748 43.8536 27.668 43.7863C27.6713 43.721 27.6613 43.6557 27.6386 43.5944C27.6159 43.5331 27.581 43.4771 27.536 43.4298C27.491 43.3824 27.4369 43.3447 27.377 43.319C27.317 43.2933 27.2525 43.2801 27.1873 43.2802C27.0598 43.2802 26.9375 43.3309 26.8474 43.4213C26.7572 43.5118 26.7066 43.6344 26.7066 43.7622C26.6954 43.8374 26.7003 43.9142 26.7211 43.9873C26.7418 44.0605 26.7778 44.1284 26.8268 44.1864Z" fill="#F4F0EA"/>
<path d="M27.644 57.7134C27.6486 57.6474 27.6396 57.581 27.6175 57.5186C27.5954 57.4562 27.5608 57.3989 27.5157 57.3505C27.4705 57.3021 27.416 57.2636 27.3553 57.2373C27.2947 57.211 27.2293 57.1975 27.1633 57.1976C27.0358 57.1976 26.9135 57.2484 26.8233 57.3388C26.7332 57.4292 26.6825 57.5519 26.6825 57.6797C26.6785 57.7512 26.6892 57.8228 26.714 57.89C26.7388 57.9572 26.7772 58.0186 26.8268 58.0702C26.8741 58.1187 26.9311 58.1567 26.994 58.1816C27.057 58.2065 27.1245 58.2179 27.1921 58.2148C27.3179 58.2073 27.4358 58.1506 27.5203 58.0568C27.6048 57.9631 27.6492 57.8397 27.644 57.7134Z" fill="#F4F0EA"/>
</svg>
