<svg width="97" height="97" viewBox="0 0 97 97" fill="none" xmlns="http://www.w3.org/2000/svg">
<circle cx="48.5" cy="48.5" r="48" stroke="#4E374B"/>
<path d="M48.3644 64.2852C47.9971 63.073 48.0198 61.6942 48.1487 60.745C48.164 60.7855 48.1796 60.8269 48.1956 60.8692C48.5876 61.9038 49.2141 63.4868 50.1547 65.6881L50.1547 65.6881L50.1572 65.6939C50.3029 66.0233 50.4261 66.3618 50.5261 66.7073C50.0372 66.5499 49.6495 66.3017 49.3386 65.9969C48.8811 65.5483 48.567 64.9539 48.3644 64.2852Z" stroke="#4E374B"/>
<path d="M48.1192 51.3322L47.684 51.5784L47.6838 51.578L47.6828 51.5762L47.6783 51.5683L47.6597 51.5357C47.643 51.5067 47.6178 51.4631 47.5844 51.4058C47.5176 51.2914 47.418 51.1224 47.2874 50.9061C47.0263 50.4734 46.6418 49.8516 46.1499 49.0981C45.1657 47.5906 43.7541 45.5596 42.0437 43.4636C40.3321 41.3663 38.3289 39.2135 36.1632 37.4559C34.0862 35.7703 31.8852 34.4693 29.6698 33.9108C28.6068 35.2124 27.6291 36.5813 26.7426 38.0087C28.7933 38.791 32.8994 40.5498 37.0807 43.4816C41.3794 46.4958 45.7954 50.7763 48.11 56.5461C50.4454 50.7335 54.9081 46.4309 59.2349 43.4121C63.4273 40.487 67.5281 38.7418 69.5412 37.9791C68.6515 36.5571 67.6744 35.1916 66.6154 33.8904C64.403 34.4381 62.2007 35.7342 60.1198 37.4195C57.9501 39.1765 55.9407 41.3332 54.2224 43.4361C52.5053 45.5375 51.0867 47.5755 50.0973 49.0886C49.6028 49.8449 49.216 50.4691 48.9533 50.9036C48.822 51.1208 48.7217 51.2905 48.6545 51.4055C48.6209 51.463 48.5955 51.5067 48.5788 51.5359L48.56 51.5687L48.5555 51.5766L48.5544 51.5784L48.5542 51.5788L48.1192 51.3322ZM48.1192 51.3322L47.684 51.5784L48.1188 52.3469L48.5542 51.5788L48.1192 51.3322Z" stroke="#4E374B"/>
<path d="M64.4362 31.4273C61.3731 32.6836 54.6393 36.7419 48.111 49.3208C41.6629 36.8194 34.9373 32.7309 31.8107 31.4622C33.0965 30.1191 34.5017 28.8951 36.0092 27.8056C39.2527 29.7461 42.0897 33.41 44.1653 36.7227C46.2891 40.112 47.5686 43.0556 47.6299 43.2002L48.1103 44.3327L48.5562 43.1862C48.5561 43.1864 48.5565 43.1854 48.5576 43.1826L48.562 43.1719L48.5773 43.1356C48.5901 43.1054 48.6078 43.0645 48.6303 43.0133C48.6752 42.911 48.7386 42.7692 48.8198 42.5926C48.9822 42.2392 49.2152 41.7474 49.5131 41.1541C50.1091 39.9672 50.9632 38.3772 52.0282 36.6794C54.1126 33.3565 56.9613 29.6926 60.2179 27.7749C61.73 28.8647 63.1417 30.087 64.4362 31.4273Z" stroke="#4E374B"/>
<path d="M47.6202 35.409L47.6203 35.4096L47.6203 35.4096L47.6204 35.4097C47.6204 35.4097 47.6204 35.4097 47.6208 35.4096L48.5983 35.4093C48.5988 35.4094 48.5988 35.4094 48.5988 35.4094L48.5988 35.4094L48.5988 35.4093L48.5989 35.4088L48.5996 35.4055L48.6027 35.3911L48.6159 35.3315C48.6279 35.2783 48.6461 35.199 48.6709 35.096C48.7204 34.8901 48.7959 34.59 48.8992 34.2172C49.1059 33.4711 49.423 32.436 49.8641 31.2825C50.7196 29.0449 52.0221 26.4138 53.8502 24.5632C55.1685 24.9643 56.443 25.4963 57.6546 26.1512C55.0977 28.3234 51.4268 33.0425 48.1196 40.1789C44.829 33.0654 41.1781 28.3531 38.5777 26.1757C39.7872 25.518 41.0605 24.9842 42.3782 24.5828C44.2019 26.4331 45.5019 29.0596 46.3562 31.2922C46.7967 32.4434 47.1135 33.4761 47.3201 34.2204C47.4233 34.5923 47.4988 34.8917 47.5483 35.0971C47.573 35.1998 47.5913 35.2789 47.6032 35.3319L47.6164 35.3914L47.6195 35.4058L47.6202 35.409Z" stroke="#4E374B"/>
<path d="M45.9215 71.0585C45.5929 70.4164 45.3903 69.5735 45.4609 68.5412C45.535 68.8708 45.6335 69.1991 45.762 69.519C46.2831 70.816 47.2868 71.9439 49.0394 72.4621C48.7627 72.5882 48.463 72.6561 48.1587 72.6615L48.1458 72.6617L48.1329 72.6626C47.4823 72.7079 46.5106 72.2094 45.9215 71.0585Z" stroke="#4E374B"/>
<path d="M48.0439 69.6706C48.6881 70.203 49.5196 70.5649 50.5692 70.6932C50.4921 70.9092 50.388 71.1149 50.2592 71.3055C49.2643 71.0887 48.5436 70.6904 48.0188 70.2026C47.4414 69.6657 47.0752 68.9963 46.8553 68.2762C46.8157 68.1465 46.781 68.0156 46.7507 67.884C47.0304 68.5507 47.4436 69.1745 48.0439 69.6706Z" stroke="#4E374B"/>
<path d="M47.507 65.6705C48.0986 66.9269 49.1522 67.9635 50.8302 68.3115C50.8569 68.5678 50.8596 68.826 50.8385 69.0828C49.9112 69.0096 49.2567 68.7406 48.7884 68.3738C48.2477 67.9503 47.9064 67.3579 47.7022 66.6575C47.61 66.3411 47.5473 66.0094 47.507 65.6705Z" stroke="#4E374B"/>
</svg>
