<svg width="25" height="25" viewBox="0 0 25 25" fill="none" xmlns="http://www.w3.org/2000/svg">
<path d="M21.3301 3.68176C18.9573 1.30737 15.8162 0 12.4819 0H12.4742C9.16644 0.00812995 5.99661 1.32652 3.6587 3.66655C1.32078 6.00658 0.00525421 9.17759 0.000112705 12.4854C-0.0137246 15.7828 1.24701 18.8834 3.55119 21.2163C5.87638 23.5707 9.04359 24.9062 12.4686 24.978H12.4824C15.8034 24.978 18.9399 23.6808 21.3096 21.3249C23.6794 18.969 24.9955 15.8412 24.9996 12.5305C25.0047 9.19825 23.7025 6.05615 21.3301 3.68176ZM12.504 24.1739H12.2949C9.35365 24.1739 6.43705 22.9546 4.27329 20.816C2.00909 18.5805 0.76373 15.6121 0.767317 12.4598C0.770392 9.36276 1.99064 6.44155 4.20308 4.24038C5.28486 3.15646 6.57025 2.29708 7.98532 1.71167C9.40039 1.12626 10.9172 0.826356 12.4486 0.829216H12.5029C15.6773 0.843566 18.6339 2.07509 20.831 4.29727C23.0101 6.50099 24.1986 9.43759 24.177 12.5669C24.1335 18.9833 18.906 24.1739 12.504 24.1739Z" fill="#4E374B"/>
<path d="M12.3081 4.23779C10.7421 4.23942 9.24064 4.86222 8.13323 5.96953C7.02581 7.07685 6.40289 8.57824 6.40112 10.1443C6.40112 13.2705 11.7557 21.6677 11.9837 22.0234L12.3076 22.5292L12.631 22.0234C12.8586 21.6677 18.2146 13.2705 18.2146 10.1443C18.2127 8.57838 17.5898 7.07714 16.4826 5.96986C15.3753 4.86259 13.8741 4.23969 12.3081 4.23779ZM12.3081 21.0932C11.1335 19.2026 7.16986 12.6299 7.16986 10.1443C7.16986 8.78168 7.71116 7.47487 8.67468 6.51135C9.6382 5.54783 10.945 5.00653 12.3076 5.00653C13.6702 5.00653 14.977 5.54783 15.9406 6.51135C16.9041 7.47487 17.4454 8.78168 17.4454 10.1443C17.4459 12.6299 13.4823 19.2026 12.3081 21.0932Z" fill="#4E374B"/>
<path d="M12.3593 7.31299C11.8297 7.31299 11.312 7.47004 10.8716 7.76428C10.4312 8.05852 10.088 8.47673 9.88535 8.96603C9.68268 9.45533 9.62965 9.99375 9.73297 10.5132C9.8363 11.0326 10.0913 11.5098 10.4658 11.8843C10.8403 12.2588 11.3174 12.5138 11.8369 12.6171C12.3563 12.7204 12.8947 12.6674 13.384 12.4647C13.8733 12.2621 14.2915 11.9188 14.5858 11.4785C14.88 11.0381 15.0371 10.5204 15.0371 9.99078C15.0363 9.28083 14.7539 8.6002 14.2519 8.09819C13.7499 7.59619 13.0692 7.3138 12.3593 7.31299ZM12.3593 11.8998C11.9817 11.8998 11.6126 11.7879 11.2987 11.5781C10.9848 11.3683 10.7401 11.0702 10.5956 10.7213C10.4511 10.3725 10.4133 9.98866 10.4869 9.61834C10.5606 9.24802 10.7424 8.90786 11.0094 8.64088C11.2764 8.37389 11.6165 8.19207 11.9869 8.11841C12.3572 8.04475 12.741 8.08256 13.0899 8.22705C13.4387 8.37154 13.7368 8.61623 13.9466 8.93017C14.1564 9.24411 14.2683 9.6132 14.2683 9.99078C14.2678 10.4969 14.0665 10.9822 13.7086 11.3401C13.3507 11.698 12.8654 11.8993 12.3593 11.8998Z" fill="#4E374B"/>
</svg>
